<svg xmlns="http://www.w3.org/2000/svg" xmlns:xlink="http://www.w3.org/1999/xlink" version="1.1" x="0px" y="0px" viewBox="0 0 100 125" style="enable-background:new 0 0 100 100;" xml:space="preserve">
	<path d="M26.1948242,11v78c0,0.5522461,0.4477539,1,1,1h45.6103516c0.5522461,0,1-0.4477539,1-1V11c0-0.5522461-0.4477539-1-1-1  H27.1948242C26.6425781,10,26.1948242,10.4477539,26.1948242,11z M28.1948242,12h43.6103516v76H28.1948242V12z" />
	<path d="M46.6225586,19.1357422H35.9912109c-0.5522461,0-1,0.4477539-1,1v13.7963867c0,0.5522461,0.4477539,1,1,1h10.6313477  c0.5522461,0,1-0.4477539,1-1V20.1357422C47.6225586,19.5834961,47.1748047,19.1357422,46.6225586,19.1357422z   M45.6225586,32.9321289h-8.6313477V21.1357422h8.6313477V32.9321289z" />
	<path d="M64.0087891,19.1357422H53.3774414c-0.5522461,0-1,0.4477539-1,1v13.7963867c0,0.5522461,0.4477539,1,1,1h10.6313477  c0.5522461,0,1-0.4477539,1-1V20.1357422C65.0087891,19.5834961,64.5610352,19.1357422,64.0087891,19.1357422z   M63.0087891,32.9321289h-8.6313477V21.1357422h8.6313477V32.9321289z" />
	<path d="M46.6225586,42.1020508H35.9912109c-0.5522461,0-1,0.4477539-1,1v13.7958984c0,0.5522461,0.4477539,1,1,1h10.6313477  c0.5522461,0,1-0.4477539,1-1V43.1020508C47.6225586,42.5498047,47.1748047,42.1020508,46.6225586,42.1020508z   M45.6225586,55.8979492h-8.6313477V44.1020508h8.6313477V55.8979492z" />
	<path d="M64.0087891,42.1020508H53.3774414c-0.5522461,0-1,0.4477539-1,1v13.7958984c0,0.5522461,0.4477539,1,1,1h10.6313477  c0.5522461,0,1-0.4477539,1-1V43.1020508C65.0087891,42.5498047,64.5610352,42.1020508,64.0087891,42.1020508z   M63.0087891,55.8979492h-8.6313477V44.1020508h8.6313477V55.8979492z" />
	<path d="M46.6225586,65.0678711H35.9912109c-0.5522461,0-1,0.4477539-1,1v13.7963867c0,0.5522461,0.4477539,1,1,1h10.6313477  c0.5522461,0,1-0.4477539,1-1V66.0678711C47.6225586,65.515625,47.1748047,65.0678711,46.6225586,65.0678711z   M45.6225586,78.8642578h-8.6313477V67.0678711h8.6313477V78.8642578z" />
	<path d="M64.0087891,65.0678711H53.3774414c-0.5522461,0-1,0.4477539-1,1v13.7963867c0,0.5522461,0.4477539,1,1,1h10.6313477  c0.5522461,0,1-0.4477539,1-1V66.0678711C65.0087891,65.515625,64.5610352,65.0678711,64.0087891,65.0678711z   M63.0087891,78.8642578h-8.6313477V67.0678711h8.6313477V78.8642578z" />
	<path d="M68.0615234,47.1708984c-0.5522461,0-1,0.4477539-1,1v3.6582031c0,0.5522461,0.4477539,1,1,1s1-0.4477539,1-1v-3.6582031  C69.0615234,47.6186523,68.6137695,47.1708984,68.0615234,47.1708984z" />
</svg>
