<svg xmlns="http://www.w3.org/2000/svg" xmlns:xlink="http://www.w3.org/1999/xlink" version="1.1" x="0px" y="0px" viewBox="0 0 100 125" enable-background="new 0 0 100 100" xml:space="preserve">
	<g>
		<circle cx="28" cy="63" r="2.5" />
		<path d="M73.929,35H72V20H28v15h-1.929C20.518,35,16,39.517,16,45.071v19.858C16,70.482,20.518,75,26.071,75h47.857   C79.482,75,84,70.482,84,64.929V45.071C84,39.517,79.482,35,73.929,35z M33,25h34v19H33V25z M79,64.929   c0,2.789-2.282,5.07-5.071,5.07H26.071C23.282,70,21,67.718,21,64.929V45.071C21,42.282,23.282,40,26.071,40H28v9h44v-9h1.929   C76.718,40,79,42.282,79,45.071V64.929z" />
	</g>
</svg>
