<svg xmlns="http://www.w3.org/2000/svg" xmlnsXlink="http://www.w3.org/1999/xlink" xmlnsSerif="http://www.serif.com/" viewBox="0 0 64 80" version="1.1" xmlSpace="preserve" style="" x="0px" y="0px" fill-rule="evenodd" clip-rule="evenodd" stroke-linejoin="round" stroke-miterlimit="1.41421">
	<path d="M33.309,12.049c0.093,0.047 0.194,0.081 0.279,0.142c0.171,0.124 0.298,0.299 0.363,0.5c0.032,0.099 0.033,0.206 0.049,0.309l0,33c-0.016,0.103 -0.017,0.21 -0.049,0.309c-0.098,0.303 -0.348,0.546 -0.642,0.642c-0.099,0.032 -0.206,0.033 -0.309,0.049l-25,0c-0.103,-0.016 -0.21,-0.017 -0.309,-0.049c-0.303,-0.098 -0.546,-0.348 -0.642,-0.642c-0.032,-0.099 -0.033,-0.206 -0.049,-0.309l0,-33c0.033,-0.207 0.069,-0.42 0.191,-0.588c0.124,-0.171 0.299,-0.298 0.5,-0.363c0.099,-0.032 0.206,-0.033 0.309,-0.049l25,0c0.103,0.016 0.206,0.033 0.309,0.049Zm-24.309,1.951l0,31l23,0l0,-31c-7.667,0 -15.333,0 -23,0Z" style="" fill-rule="nonzero" />
	<path d="M55.092,15.004c0.499,0.07 0.885,0.492 0.908,0.996l0,23c-0.025,0.536 -0.46,0.975 -1,1l-16,0c-0.536,-0.025 -0.975,-0.46 -1,-1l0,-23c0.025,-0.537 0.451,-0.975 1,-1l16,0c0.031,0.001 0.062,0.003 0.092,0.004Zm-15.092,1.996l0,21l14,0l0,-21c-4.667,0 -9.333,0 -14,0Z" style="" fill-rule="nonzero" />
	<path d="M27.063,21.002c0.249,0.025 0.314,0.061 0.436,0.131c0.461,0.266 0.64,0.934 0.348,1.399c-0.036,0.058 -0.049,0.07 -0.091,0.123l-13,15c-0.444,0.474 -1.311,0.399 -1.628,-0.165c-0.175,-0.312 -0.165,-0.719 0.025,-1.022c0.036,-0.058 0.049,-0.07 0.091,-0.123l13,-15c0.159,-0.17 0.364,-0.293 0.59,-0.331c0.145,-0.025 0.181,-0.013 0.229,-0.012Z" style="" fill-rule="nonzero" />
	<path d="M51.045,22.001c0.242,0.018 0.32,0.056 0.451,0.131c0.477,0.272 0.647,0.976 0.325,1.439c-0.03,0.044 -0.04,0.053 -0.074,0.093l-8,9c-0.512,0.543 -1.601,0.31 -1.734,-0.502c-0.041,-0.254 0.02,-0.523 0.166,-0.733c0.03,-0.044 0.04,-0.053 0.074,-0.093l8,-9c0.205,-0.218 0.483,-0.34 0.792,-0.335Z" style="" fill-rule="nonzero" />
	<path d="M19.062,21.002c0.722,0.062 1.222,0.982 0.724,1.616c-0.01,0.012 -0.02,0.025 -0.03,0.037l-5.2,6c-0.441,0.485 -1.328,0.392 -1.636,-0.181c-0.191,-0.354 -0.132,-0.818 0.124,-1.129l5.2,-6c0.176,-0.194 0.415,-0.32 0.673,-0.342c0.093,-0.007 0.115,-0.002 0.145,-0.001Z" style="" fill-rule="nonzero" />
	<path d="M45.541,22.001c0.731,0.042 1.241,1.003 0.737,1.627c-0.007,0.009 -0.015,0.018 -0.022,0.027l-2.6,3c-0.434,0.483 -1.32,0.407 -1.636,-0.181c-0.191,-0.354 -0.139,-0.814 0.124,-1.129l2.6,-3c0.071,-0.079 0.086,-0.089 0.124,-0.12c0.18,-0.147 0.357,-0.222 0.638,-0.225c0.012,0 0.023,0.001 0.035,0.001Z" style="" fill-rule="nonzero" />
	<path d="M27.262,30.002c0.719,0.062 1.21,0.997 0.724,1.616c-0.01,0.012 -0.02,0.025 -0.03,0.037l-5.2,6c-0.441,0.485 -1.328,0.392 -1.636,-0.181c-0.191,-0.354 -0.132,-0.818 0.124,-1.129l5.2,-6c0.1,-0.11 0.123,-0.123 0.179,-0.162c0.184,-0.13 0.412,-0.19 0.639,-0.181Z" style="" fill-rule="nonzero" />
	<path d="M51.141,28.001c0.731,0.042 1.241,1.003 0.737,1.627c-0.007,0.009 -0.015,0.018 -0.022,0.027l-2.6,3c-0.431,0.48 -1.315,0.415 -1.636,-0.181c-0.191,-0.354 -0.139,-0.814 0.124,-1.129l2.6,-3c0.075,-0.084 0.101,-0.103 0.151,-0.141c0.176,-0.134 0.34,-0.201 0.611,-0.204c0.012,0 0.023,0.001 0.035,0.001Z" style="" fill-rule="nonzero" />
	<path d="M56.408,59.007c1.028,0.003 2.057,0.005 3.085,-0.008c0.341,-0.007 0.606,-0.427 0.427,-0.746l-0.723,-1.253c0,0 -0.188,-0.349 -0.112,-0.708c0.087,-0.41 0.455,-0.743 0.874,-0.787c0.1,-0.01 0.124,-0.004 0.156,-0.004c0.301,0.024 0.582,0.171 0.757,0.411c0.027,0.038 0.033,0.048 0.057,0.088c0.409,0.708 0.919,1.382 1.03,2.136c0.205,1.398 -0.949,2.844 -2.453,2.863c-1.031,0.004 -2.061,0.004 -3.09,0.002l0.059,0.06c0,0 0.307,0.344 0.292,0.744c-0.027,0.738 -1.042,1.288 -1.679,0.696c-0.009,-0.008 -0.018,-0.017 -0.027,-0.026l-1.768,-1.768c-0.358,-0.372 -0.387,-0.998 -0.026,-1.387c0.008,-0.009 0.017,-0.018 0.026,-0.027l1.768,-1.768c0.171,-0.165 0.395,-0.272 0.632,-0.29c0.073,-0.006 0.089,-0.003 0.112,-0.002c0.758,0.042 1.274,1.056 0.696,1.679c-0.008,0.009 -0.017,0.018 -0.026,0.027l-0.067,0.068Zm-8.523,-4.416l-0.082,0.022c0,0 -0.665,0.092 -1.014,-0.31c-0.429,-0.494 -0.219,-1.404 0.463,-1.612c0.011,-0.004 0.022,-0.007 0.033,-0.01l2.415,-0.647c0.091,-0.022 0.183,-0.034 0.276,-0.034c0.436,0.015 0.83,0.327 0.949,0.741l0.647,2.415c0.154,0.619 -0.397,1.313 -1.053,1.255c-0.405,-0.035 -0.764,-0.338 -0.879,-0.737l-0.022,-0.083l-1.535,2.657c-0.175,0.303 0.046,0.75 0.434,0.752l1.44,0c0.651,0.017 1.172,0.737 0.934,1.358c-0.144,0.375 -0.528,0.631 -0.934,0.642c-0.811,0 -1.642,0.104 -2.346,-0.169c-1.319,-0.512 -2.012,-2.243 -1.271,-3.563c0.511,-0.895 1.029,-1.785 1.545,-2.677Zm8.121,-3.172c-0.491,-0.82 -0.979,-1.643 -1.46,-2.474c-0.212,-0.366 -0.733,-0.617 -0.98,-0.193l-0.72,1.247c-0.342,0.561 -1.238,0.657 -1.659,0.109c-0.239,-0.311 -0.264,-0.759 -0.073,-1.109c0.477,-0.827 0.882,-1.745 1.671,-2.184c0.364,-0.202 0.777,-0.31 1.194,-0.315c0.021,0 0.021,0 0.042,0c0.855,0.011 1.686,0.479 2.133,1.232c0.513,0.879 1.032,1.759 1.557,2.637l0.011,-0.043c0,0 0.302,-0.73 0.949,-0.741c0.023,0 0.046,0.001 0.069,0.001c0.585,0.041 1.06,0.627 0.922,1.224c-0.002,0.011 -0.005,0.022 -0.008,0.034l-0.647,2.415c-0.143,0.498 -0.676,0.834 -1.191,0.715c-0.011,-0.002 -0.023,-0.005 -0.034,-0.008l-2.414,-0.647c-0.568,-0.163 -0.912,-0.871 -0.632,-1.42c0.206,-0.404 0.698,-0.625 1.15,-0.512l0.12,0.032Z" />
</svg>
