<svg xmlns="http://www.w3.org/2000/svg" xmlns:xlink="http://www.w3.org/1999/xlink" viewBox="0 0 25 31.25" version="1.1" x="0px" y="0px">
	<title>
		phone
	</title>
	<desc>
		Created with Sketch.
	</desc>
	<g stroke="none" stroke-width="1" fill="none" fill-rule="evenodd">
		<g fill-rule="nonzero" fill="#000000">
			<path d="M21.1355488,12 L22.2898534,14.1615624 C22.6820566,15.3609984 23,17.3464198 23,18.6055324 L23,19.727801 C23,20.9827018 21.9005161,22 20.5292806,22 L4.4707194,22 C3.10617875,22 2,20.9869136 2,19.727801 L2,18.6055324 C2,17.3506315 2.31596145,15.3670597 2.71014656,14.1615624 L3.86445122,12 L2.09409528,12 C1.48984314,12 1,11.4337046 1,10.7537123 L1,7 C1,4.23857625 2.96096706,2 5.38026153,2 L19.6197385,2 C22.0388901,2 24,4.24419519 24,7 L24,10.7537123 C24,11.442018 23.5151815,12 22.9059047,12 L21.1355488,12 Z M20.0675207,10 L22,10 L22,7 C22,5.29199291 20.8690246,4 19.6197385,4 L5.38026153,4 C4.12880281,4 3,5.28853976 3,7 L3,10 L4.9324793,10 L5.90877927,8.17177095 C6.30098239,6.97233497 7.73090816,6 9.07965273,6 L15.9203473,6 C17.2793692,6 18.6970356,6.96627363 19.0912207,8.17177095 L20.0675207,10 Z M4,18.6055324 L4,19.727801 C4,19.8411238 4.17297858,20 4.4707194,20 L20.5292806,20 C20.8285489,20 21,19.8420291 21,19.727801 L21,18.6055324 C21,17.6116623 20.7437313,15.9593515 20.4376034,14.9388034 L17.2446258,8.95960185 L17.1902674,8.79336294 C17.0728038,8.4341356 16.4379981,8 15.9203473,8 L9.07965273,8 C8.57085182,8 7.92478443,8.44151118 7.80973256,8.79336294 L7.75537416,8.95960185 L4.56237839,14.9388375 C4.25560587,15.9612482 4,17.6119363 4,18.6055324 Z M12.5,18 C10.5670034,18 9,16.4329966 9,14.5 C9,12.5670034 10.5670034,11 12.5,11 C14.4329966,11 16,12.5670034 16,14.5 C16,16.4329966 14.4329966,18 12.5,18 Z M12.5,16 C13.3284271,16 14,15.3284271 14,14.5 C14,13.6715729 13.3284271,13 12.5,13 C11.6715729,13 11,13.6715729 11,14.5 C11,15.3284271 11.6715729,16 12.5,16 Z" />
		</g>
	</g>
	<text x="0" y="40" fill="#000000" font-size="5px" font-weight="bold" font-family="'Helvetica Neue', Helvetica, Arial-Unicode, Arial, Sans-serif">
		Created by Тимур Минвалеев
	</text>
	<text x="0" y="45" fill="#000000" font-size="5px" font-weight="bold" font-family="'Helvetica Neue', Helvetica, Arial-Unicode, Arial, Sans-serif">
		from the Noun Project
	</text>
</svg>
