<svg width="1100" height="2022" viewBox="0 0 1100 2022" fill="none" xmlns="http://www.w3.org/2000/svg">
<path d="M555 0C278.858 0 55 223.858 55 500H1055C1055 223.858 831.142 0 555 0Z" fill="black"/>
<path d="M162.57 467.5C166.568 254.189 340.734 82.5 555 82.5C769.266 82.5 943.432 254.189 947.43 467.5H162.57Z" fill="black" stroke="white" stroke-width="15"/>
<path d="M556 316C484.203 316 426 374.203 426 446H686C686 374.203 627.797 316 556 316Z" fill="white"/>
<rect x="550" y="84" width="15" height="238" fill="white"/>
<rect width="15" height="251.523" transform="matrix(0.573576 0.819152 -0.774022 0.633159 847.684 209)" fill="white"/>
<rect width="15" height="251.523" transform="matrix(0.707107 -0.707107 0.757947 0.652316 261 216.606)" fill="white"/>
<path fill-rule="evenodd" clip-rule="evenodd" d="M55 520H1056.51V1843H55V520ZM155 570H536V951H155V570ZM536 991H155V1372H536V991ZM155 1412H536V1793H155V1412ZM955 991H574V1372H955V991ZM574 1412H955V1793H574V1412ZM955 570H574V951H955V570Z" fill="black"/>
<path fill-rule="evenodd" clip-rule="evenodd" d="M0 1842H1100V2022H0V1842ZM82.56 1925H123.51V1934.38H108.53V1974H97.47V1934.38H82.56V1925ZM153.441 1974.42C148.588 1974.42 144.178 1973.35 140.211 1971.2C136.291 1969.01 133.211 1966.02 130.971 1962.24C128.778 1958.46 127.681 1954.21 127.681 1949.5C127.681 1944.79 128.778 1940.54 130.971 1936.76C133.211 1932.98 136.291 1930.02 140.211 1927.87C144.178 1925.68 148.588 1924.58 153.441 1924.58C158.294 1924.58 162.658 1925.65 166.531 1927.8C170.451 1929.95 173.531 1932.93 175.771 1936.76C178.011 1940.54 179.131 1944.79 179.131 1949.5C179.131 1954.21 178.011 1958.48 175.771 1962.31C173.531 1966.09 170.451 1969.05 166.531 1971.2C162.658 1973.35 158.294 1974.42 153.441 1974.42ZM153.441 1969.8C157.314 1969.8 160.814 1968.94 163.941 1967.21C167.068 1965.44 169.518 1963.01 171.291 1959.93C173.064 1956.8 173.951 1953.33 173.951 1949.5C173.951 1945.67 173.064 1942.22 171.291 1939.14C169.518 1936.01 167.068 1933.59 163.941 1931.86C160.814 1930.09 157.314 1929.2 153.441 1929.2C149.568 1929.2 146.044 1930.09 142.871 1931.86C139.744 1933.59 137.271 1936.01 135.451 1939.14C133.678 1942.22 132.791 1945.67 132.791 1949.5C132.791 1953.33 133.678 1956.8 135.451 1959.93C137.271 1963.01 139.744 1965.44 142.871 1967.21C146.044 1968.94 149.568 1969.8 153.441 1969.8ZM196.778 1929.48H179.558V1925H219.178V1929.48H201.958V1974H196.778V1929.48ZM225.622 1960.91L219.742 1974H214.352L236.753 1925H241.862L264.262 1974H258.802L252.923 1960.91H225.622ZM251.033 1956.71L239.272 1930.39L227.512 1956.71H251.033ZM269.568 1925H274.748V1969.52H302.188V1974H269.568V1925ZM396.22 1925H407.63L391.04 1974H379.63L369.34 1938.65L358.91 1974H347.57L331.05 1925H342.95L353.59 1962.38L364.16 1925H375.01L385.72 1962.38L396.22 1925ZM415.592 1925H420.772V1974H415.592V1925ZM474.865 1974H470.595L439.095 1934.24V1974H433.915V1925H438.185L469.755 1964.76V1925H474.865V1974ZM488.059 1925H508.009C513.189 1925 517.762 1926.05 521.729 1928.15C525.695 1930.2 528.775 1933.1 530.969 1936.83C533.162 1940.52 534.259 1944.74 534.259 1949.5C534.259 1954.26 533.162 1958.51 530.969 1962.24C528.775 1965.93 525.695 1968.82 521.729 1970.92C517.762 1972.97 513.189 1974 508.009 1974H488.059V1925ZM507.729 1969.52C512.022 1969.52 515.779 1968.68 518.999 1967C522.219 1965.27 524.715 1962.92 526.489 1959.93C528.262 1956.9 529.148 1953.42 529.148 1949.5C529.148 1945.58 528.262 1942.13 526.489 1939.14C524.715 1936.11 522.219 1933.75 518.999 1932.07C515.779 1930.34 512.022 1929.48 507.729 1929.48H493.239V1969.52H507.729ZM564.511 1974.42C559.657 1974.42 555.247 1973.35 551.281 1971.2C547.361 1969.01 544.281 1966.02 542.041 1962.24C539.847 1958.46 538.751 1954.21 538.751 1949.5C538.751 1944.79 539.847 1940.54 542.041 1936.76C544.281 1932.98 547.361 1930.02 551.281 1927.87C555.247 1925.68 559.657 1924.58 564.511 1924.58C569.364 1924.58 573.727 1925.65 577.601 1927.8C581.521 1929.95 584.601 1932.93 586.841 1936.76C589.081 1940.54 590.201 1944.79 590.201 1949.5C590.201 1954.21 589.081 1958.48 586.841 1962.31C584.601 1966.09 581.521 1969.05 577.601 1971.2C573.727 1973.35 569.364 1974.42 564.511 1974.42ZM564.511 1969.8C568.384 1969.8 571.884 1968.94 575.011 1967.21C578.137 1965.44 580.587 1963.01 582.361 1959.93C584.134 1956.8 585.021 1953.33 585.021 1949.5C585.021 1945.67 584.134 1942.22 582.361 1939.14C580.587 1936.01 578.137 1933.59 575.011 1931.86C571.884 1930.09 568.384 1929.2 564.511 1929.2C560.637 1929.2 557.114 1930.09 553.941 1931.86C550.814 1933.59 548.341 1936.01 546.521 1939.14C544.747 1942.22 543.861 1945.67 543.861 1949.5C543.861 1953.33 544.747 1956.8 546.521 1959.93C548.341 1963.01 550.814 1965.44 553.941 1967.21C557.114 1968.94 560.637 1969.8 564.511 1969.8ZM648.257 1974H642.797L628.447 1932.21L614.027 1974H608.637L592.117 1925H597.437L611.577 1967.14L626.207 1925H631.037L645.457 1967.35L659.807 1925H664.777L648.257 1974ZM733.221 1938.65C730.701 1937.11 728.018 1935.9 725.171 1935.01C722.371 1934.08 719.968 1933.61 717.961 1933.61C716.048 1933.61 714.531 1933.96 713.411 1934.66C712.291 1935.36 711.731 1936.39 711.731 1937.74C711.731 1939.47 712.524 1940.8 714.111 1941.73C715.744 1942.62 718.241 1943.55 721.601 1944.53C724.961 1945.51 727.714 1946.49 729.861 1947.47C732.054 1948.45 733.921 1949.92 735.461 1951.88C737.001 1953.84 737.771 1956.43 737.771 1959.65C737.771 1962.78 736.931 1965.48 735.251 1967.77C733.618 1970.01 731.354 1971.71 728.461 1972.88C725.568 1974.05 722.278 1974.63 718.591 1974.63C714.624 1974.63 710.728 1973.93 706.901 1972.53C703.074 1971.13 699.761 1969.22 696.961 1966.79L701.371 1957.76C703.844 1960 706.691 1961.8 709.911 1963.15C713.131 1964.5 716.071 1965.18 718.731 1965.18C721.018 1965.18 722.791 1964.76 724.051 1963.92C725.358 1963.08 726.011 1961.87 726.011 1960.28C726.011 1959.02 725.568 1957.99 724.681 1957.2C723.841 1956.36 722.744 1955.68 721.391 1955.17C720.084 1954.66 718.264 1954.07 715.931 1953.42C712.571 1952.49 709.818 1951.55 707.671 1950.62C705.571 1949.69 703.751 1948.26 702.211 1946.35C700.671 1944.44 699.901 1941.89 699.901 1938.72C699.901 1935.78 700.694 1933.21 702.281 1931.02C703.868 1928.78 706.084 1927.08 708.931 1925.91C711.778 1924.7 715.091 1924.09 718.871 1924.09C722.231 1924.09 725.544 1924.58 728.811 1925.56C732.078 1926.54 734.971 1927.85 737.491 1929.48L733.221 1938.65ZM782.761 1969.52V1974H748.111V1925H781.711V1929.48H753.291V1946.91H778.631V1951.32H753.291V1969.52H782.761ZM825.597 1974L814.397 1958.25C813.137 1958.39 811.831 1958.46 810.477 1958.46H797.317V1974H792.137V1925H810.477C816.731 1925 821.631 1926.49 825.177 1929.48C828.724 1932.47 830.497 1936.57 830.497 1941.8C830.497 1945.63 829.517 1948.87 827.557 1951.53C825.644 1954.14 822.891 1956.03 819.297 1957.2L831.267 1974H825.597ZM810.337 1954.05C815.191 1954.05 818.901 1952.98 821.467 1950.83C824.034 1948.68 825.317 1945.67 825.317 1941.8C825.317 1937.83 824.034 1934.8 821.467 1932.7C818.901 1930.55 815.191 1929.48 810.337 1929.48H797.317V1954.05H810.337ZM858.963 1974H853.853L832.153 1925H837.753L856.513 1967.56L875.413 1925H880.663L858.963 1974ZM884.975 1925H890.155V1974H884.975V1925ZM924.578 1974.42C919.725 1974.42 915.338 1973.35 911.418 1971.2C907.545 1969.05 904.488 1966.09 902.248 1962.31C900.055 1958.48 898.958 1954.21 898.958 1949.5C898.958 1944.79 900.055 1940.54 902.248 1936.76C904.488 1932.93 907.568 1929.95 911.488 1927.8C915.408 1925.65 919.795 1924.58 924.648 1924.58C928.288 1924.58 931.648 1925.19 934.728 1926.4C937.808 1927.61 940.421 1929.39 942.568 1931.72L939.278 1935.01C935.451 1931.14 930.621 1929.2 924.788 1929.2C920.915 1929.2 917.391 1930.09 914.218 1931.86C911.045 1933.63 908.548 1936.06 906.728 1939.14C904.955 1942.22 904.068 1945.67 904.068 1949.5C904.068 1953.33 904.955 1956.78 906.728 1959.86C908.548 1962.94 911.045 1965.37 914.218 1967.14C917.391 1968.91 920.915 1969.8 924.788 1969.8C930.668 1969.8 935.498 1967.84 939.278 1963.92L942.568 1967.21C940.421 1969.54 937.785 1971.34 934.658 1972.6C931.578 1973.81 928.218 1974.42 924.578 1974.42ZM985.46 1969.52V1974H950.81V1925H984.41V1929.48H955.99V1946.91H981.33V1951.32H955.99V1969.52H985.46ZM1008.35 1974.42C1004.71 1974.42 1001.21 1973.84 997.847 1972.67C994.533 1971.5 991.967 1969.96 990.147 1968.05L992.177 1964.06C993.95 1965.83 996.307 1967.28 999.247 1968.4C1002.19 1969.47 1005.22 1970.01 1008.35 1970.01C1012.73 1970.01 1016.02 1969.22 1018.22 1967.63C1020.41 1966 1021.51 1963.9 1021.51 1961.33C1021.51 1959.37 1020.9 1957.81 1019.69 1956.64C1018.52 1955.47 1017.07 1954.59 1015.35 1953.98C1013.62 1953.33 1011.22 1952.63 1008.14 1951.88C1004.45 1950.95 1001.51 1950.06 999.317 1949.22C997.123 1948.33 995.233 1947 993.647 1945.23C992.107 1943.46 991.337 1941.05 991.337 1938.02C991.337 1935.55 991.99 1933.31 993.297 1931.3C994.603 1929.25 996.61 1927.61 999.317 1926.4C1002.02 1925.19 1005.38 1924.58 1009.4 1924.58C1012.2 1924.58 1014.93 1924.98 1017.59 1925.77C1020.29 1926.52 1022.63 1927.57 1024.59 1928.92L1022.84 1933.05C1020.78 1931.7 1018.59 1930.69 1016.26 1930.04C1013.92 1929.34 1011.64 1928.99 1009.4 1928.99C1005.1 1928.99 1001.86 1929.83 999.667 1931.51C997.52 1933.14 996.447 1935.27 996.447 1937.88C996.447 1939.84 997.03 1941.43 998.197 1942.64C999.41 1943.81 1000.9 1944.72 1002.68 1945.37C1004.5 1945.98 1006.92 1946.65 1009.96 1947.4C1013.55 1948.29 1016.44 1949.17 1018.64 1950.06C1020.88 1950.9 1022.77 1952.21 1024.31 1953.98C1025.85 1955.71 1026.62 1958.06 1026.62 1961.05C1026.62 1963.52 1025.94 1965.79 1024.59 1967.84C1023.28 1969.85 1021.25 1971.46 1018.5 1972.67C1015.74 1973.84 1012.36 1974.42 1008.35 1974.42ZM1031 1862H81V1880H1031V1862Z" fill="black"/>
<path d="M263.184 673.9H422.889V710.482H364.467V865H321.333V710.482H263.184V673.9Z" fill="white"/>
<path d="M263.184 673.9V656.9H246.184V673.9H263.184ZM422.889 673.9H439.889V656.9H422.889V673.9ZM422.889 710.482V727.482H439.889V710.482H422.889ZM364.467 710.482V693.482H347.467V710.482H364.467ZM364.467 865V882H381.467V865H364.467ZM321.333 865H304.333V882H321.333V865ZM321.333 710.482H338.333V693.482H321.333V710.482ZM263.184 710.482H246.184V727.482H263.184V710.482ZM263.184 690.9H422.889V656.9H263.184V690.9ZM405.889 673.9V710.482H439.889V673.9H405.889ZM422.889 693.482H364.467V727.482H422.889V693.482ZM347.467 710.482V865H381.467V710.482H347.467ZM364.467 848H321.333V882H364.467V848ZM338.333 865V710.482H304.333V865H338.333ZM321.333 693.482H263.184V727.482H321.333V693.482ZM280.184 710.482V673.9H246.184V710.482H280.184Z" fill="black"/>
<path d="M844.785 1101.5H883.09L827.395 1266H789.09L754.545 1147.33L719.53 1266H681.46L626 1101.5H665.95L701.67 1226.99L737.155 1101.5H773.58L809.535 1226.99L844.785 1101.5Z" fill="white"/>
<path d="M844.785 1101.5V1084.5H831.902L828.418 1096.9L844.785 1101.5ZM883.09 1101.5L899.192 1106.95L906.794 1084.5H883.09V1101.5ZM827.395 1266V1283H839.587L843.497 1271.45L827.395 1266ZM789.09 1266L772.767 1270.75L776.333 1283H789.09V1266ZM754.545 1147.33L770.868 1142.57L754.655 1086.88L738.24 1142.51L754.545 1147.33ZM719.53 1266V1283H732.239L735.835 1270.81L719.53 1266ZM681.46 1266L665.351 1271.43L669.251 1283H681.46V1266ZM626 1101.5V1084.5H602.328L609.891 1106.93L626 1101.5ZM665.95 1101.5L682.301 1096.85L678.786 1084.5H665.95V1101.5ZM701.67 1226.99L685.319 1231.64L701.724 1289.28L718.029 1231.62L701.67 1226.99ZM737.155 1101.5V1084.5H724.296L720.796 1096.87L737.155 1101.5ZM773.58 1101.5L789.922 1096.82L786.393 1084.5H773.58V1101.5ZM809.535 1226.99L793.193 1231.67L809.697 1289.28L825.902 1231.59L809.535 1226.99ZM844.785 1118.5H883.09V1084.5H844.785V1118.5ZM866.988 1096.05L811.293 1260.55L843.497 1271.45L899.192 1106.95L866.988 1096.05ZM827.395 1249H789.09V1283H827.395V1249ZM805.413 1261.25L770.868 1142.57L738.222 1152.08L772.767 1270.75L805.413 1261.25ZM738.24 1142.51L703.225 1261.19L735.835 1270.81L770.85 1152.14L738.24 1142.51ZM719.53 1249H681.46V1283H719.53V1249ZM697.569 1260.57L642.109 1096.07L609.891 1106.93L665.351 1271.43L697.569 1260.57ZM626 1118.5H665.95V1084.5H626V1118.5ZM649.599 1106.15L685.319 1231.64L718.021 1222.34L682.301 1096.85L649.599 1106.15ZM718.029 1231.62L753.514 1106.13L720.796 1096.87L685.311 1222.36L718.029 1231.62ZM737.155 1118.5H773.58V1084.5H737.155V1118.5ZM757.238 1106.18L793.193 1231.67L825.877 1222.31L789.922 1096.82L757.238 1106.18ZM825.902 1231.59L861.152 1106.1L828.418 1096.9L793.168 1222.39L825.902 1231.59Z" fill="black"/>
<path d="M402.874 1555.14C393.046 1549.13 382.581 1544.4 371.479 1540.94C360.559 1537.3 351.186 1535.48 343.36 1535.48C335.898 1535.48 329.983 1536.84 325.615 1539.57C321.247 1542.3 319.063 1546.31 319.063 1551.59C319.063 1558.32 322.157 1563.51 328.345 1567.15C334.715 1570.6 344.452 1574.24 357.556 1578.07C370.66 1581.89 381.398 1585.71 389.77 1589.53C398.324 1593.35 405.604 1599.09 411.61 1606.73C417.616 1614.38 420.619 1624.48 420.619 1637.03C420.619 1649.23 417.343 1659.78 410.791 1668.7C404.421 1677.44 395.594 1684.08 384.31 1688.63C373.026 1693.18 360.195 1695.46 345.817 1695.46C330.347 1695.46 315.15 1692.73 300.226 1687.27C285.302 1681.81 272.38 1674.34 261.46 1664.88L278.659 1629.66C288.305 1638.4 299.407 1645.41 311.965 1650.68C324.523 1655.96 335.989 1658.6 346.363 1658.6C355.281 1658.6 362.197 1656.96 367.111 1653.69C372.207 1650.41 374.755 1645.68 374.755 1639.49C374.755 1634.58 373.026 1630.57 369.568 1627.48C366.292 1624.2 362.015 1621.56 356.737 1619.56C351.641 1617.56 344.543 1615.29 335.443 1612.74C322.339 1609.1 311.601 1605.46 303.229 1601.82C295.039 1598.18 287.941 1592.63 281.935 1585.16C275.929 1577.7 272.926 1567.78 272.926 1555.41C272.926 1543.94 276.02 1533.93 282.208 1525.38C288.396 1516.64 297.041 1510 308.143 1505.45C319.245 1500.72 332.167 1498.35 346.909 1498.35C360.013 1498.35 372.935 1500.26 385.675 1504.08C398.415 1507.91 409.699 1513 419.527 1519.37L402.874 1555.14Z" fill="white"/>
<path d="M402.874 1555.14L394.009 1569.64L410.25 1579.57L418.285 1562.31L402.874 1555.14ZM371.479 1540.94L366.103 1557.07L366.263 1557.12L366.423 1557.17L371.479 1540.94ZM325.615 1539.57L334.625 1553.99L334.625 1553.99L325.615 1539.57ZM328.345 1567.15L319.726 1581.8L319.978 1581.95L320.234 1582.09L328.345 1567.15ZM357.556 1578.07L362.316 1561.75L362.316 1561.75L357.556 1578.07ZM389.77 1589.53L382.71 1605L382.772 1605.03L382.835 1605.05L389.77 1589.53ZM411.61 1606.73L424.977 1596.23L424.977 1596.23L411.61 1606.73ZM410.791 1668.7L397.091 1658.64L397.073 1658.66L397.055 1658.69L410.791 1668.7ZM384.31 1688.63L390.667 1704.4L390.667 1704.4L384.31 1688.63ZM300.226 1687.27L294.385 1703.23L294.385 1703.23L300.226 1687.27ZM261.46 1664.88L246.184 1657.42L240.448 1669.17L250.326 1677.73L261.46 1664.88ZM278.659 1629.66L290.071 1617.06L273.308 1601.88L263.383 1622.2L278.659 1629.66ZM311.965 1650.68L305.378 1666.36L305.378 1666.36L311.965 1650.68ZM367.111 1653.69L357.918 1639.39L357.799 1639.46L357.681 1639.54L367.111 1653.69ZM369.568 1627.48L357.547 1639.5L357.881 1639.83L358.232 1640.15L369.568 1627.48ZM356.737 1619.56L350.521 1635.39L350.614 1635.42L350.708 1635.46L356.737 1619.56ZM335.443 1612.74L340.027 1596.37L340.01 1596.36L339.993 1596.36L335.443 1612.74ZM303.229 1601.82L296.325 1617.35L296.388 1617.38L296.451 1617.41L303.229 1601.82ZM281.935 1585.16L295.178 1574.51L295.178 1574.51L281.935 1585.16ZM282.208 1525.38L295.982 1535.34L296.031 1535.27L296.08 1535.2L282.208 1525.38ZM308.143 1505.45L314.59 1521.18L314.7 1521.13L314.809 1521.09L308.143 1505.45ZM419.527 1519.37L434.938 1526.55L441.178 1513.15L428.773 1505.11L419.527 1519.37ZM411.739 1540.63C400.705 1533.89 388.959 1528.58 376.535 1524.71L366.423 1557.17C376.203 1560.22 385.387 1564.37 394.009 1569.64L411.739 1540.63ZM376.855 1524.81C364.939 1520.84 353.655 1518.48 343.36 1518.48V1552.48C348.717 1552.48 356.179 1553.76 366.103 1557.07L376.855 1524.81ZM343.36 1518.48C334.063 1518.48 324.628 1520.14 316.605 1525.16L334.625 1553.99C335.338 1553.54 337.733 1552.48 343.36 1552.48V1518.48ZM316.605 1525.16C307.119 1531.09 302.063 1540.62 302.063 1551.59H336.063C336.063 1551.34 336.096 1551.9 335.625 1552.76C335.409 1553.16 335.159 1553.48 334.933 1553.72C334.714 1553.94 334.58 1554.02 334.625 1553.99L316.605 1525.16ZM302.063 1551.59C302.063 1564.81 308.764 1575.35 319.726 1581.8L336.964 1552.49C336.402 1552.16 336.115 1551.92 335.999 1551.81C335.893 1551.71 335.918 1551.71 335.983 1551.82C336.052 1551.93 336.088 1552.04 336.098 1552.08C336.105 1552.1 336.063 1551.96 336.063 1551.59H302.063ZM320.234 1582.09C328.226 1586.43 339.357 1590.47 352.796 1594.39L362.316 1561.75C349.547 1558.02 341.204 1554.78 336.456 1552.21L320.234 1582.09ZM352.796 1594.39C365.451 1598.08 375.346 1601.64 382.71 1605L396.83 1574.07C387.45 1569.79 375.869 1565.7 362.316 1561.75L352.796 1594.39ZM382.835 1605.05C388.773 1607.71 393.875 1611.68 398.243 1617.23L424.977 1596.23C417.333 1586.5 407.875 1579 396.705 1574.01L382.835 1605.05ZM398.243 1617.23C401.285 1621.11 403.619 1627.16 403.619 1637.03H437.619C437.619 1621.79 433.947 1607.65 424.977 1596.23L398.243 1617.23ZM403.619 1637.03C403.619 1646 401.28 1652.94 397.091 1658.64L424.491 1678.77C433.406 1666.63 437.619 1652.46 437.619 1637.03H403.619ZM397.055 1658.69C392.786 1664.54 386.667 1669.35 377.953 1672.87L390.667 1704.4C404.521 1698.81 416.056 1690.34 424.527 1678.72L397.055 1658.69ZM377.953 1672.87C369.021 1676.47 358.405 1678.46 345.817 1678.46V1712.46C361.985 1712.46 377.031 1709.9 390.667 1704.4L377.953 1672.87ZM345.817 1678.46C332.394 1678.46 319.171 1676.1 306.067 1671.3L294.385 1703.23C311.129 1709.36 328.3 1712.46 345.817 1712.46V1678.46ZM306.067 1671.3C292.889 1666.48 281.805 1660.02 272.594 1652.03L250.326 1677.73C262.955 1688.67 277.715 1697.13 294.385 1703.23L306.067 1671.3ZM276.736 1672.34L293.935 1637.12L263.383 1622.2L246.184 1657.42L276.736 1672.34ZM267.247 1642.26C278.382 1652.35 291.133 1660.37 305.378 1666.36L318.552 1635.01C307.681 1630.44 298.228 1624.45 290.071 1617.06L267.247 1642.26ZM305.378 1666.36C319.401 1672.25 333.139 1675.6 346.363 1675.6V1641.6C338.839 1641.6 329.645 1639.68 318.552 1635.01L305.378 1666.36ZM346.363 1675.6C357.035 1675.6 367.747 1673.7 376.541 1667.83L357.681 1639.54C356.647 1640.23 353.527 1641.6 346.363 1641.6V1675.6ZM376.304 1667.99C386.391 1661.5 391.755 1651.31 391.755 1639.49H357.755C357.755 1639.87 357.716 1640.02 357.722 1640C357.725 1639.99 357.736 1639.94 357.762 1639.87C357.789 1639.8 357.827 1639.71 357.876 1639.62C357.925 1639.53 357.979 1639.45 358.033 1639.37C358.086 1639.3 358.131 1639.25 358.158 1639.22C358.215 1639.16 358.165 1639.23 357.918 1639.39L376.304 1667.99ZM391.755 1639.49C391.755 1630.06 388.2 1621.34 380.904 1614.81L358.232 1640.15C358.259 1640.17 358.203 1640.13 358.112 1640C358.018 1639.87 357.925 1639.71 357.851 1639.54C357.778 1639.37 357.749 1639.25 357.742 1639.21C357.735 1639.18 357.755 1639.26 357.755 1639.49H391.755ZM381.589 1615.46C376.283 1610.15 369.812 1606.34 362.766 1603.67L350.708 1635.46C354.218 1636.79 356.301 1638.25 357.547 1639.5L381.589 1615.46ZM362.953 1603.74C357.075 1601.43 349.345 1598.98 340.027 1596.37L330.859 1629.11C339.741 1631.6 346.207 1633.69 350.521 1635.39L362.953 1603.74ZM339.993 1596.36C327.32 1592.84 317.398 1589.44 310.007 1586.23L296.451 1617.41C305.804 1621.47 317.359 1625.36 330.893 1629.12L339.993 1596.36ZM310.133 1586.28C304.583 1583.82 299.609 1580.01 295.178 1574.51L268.692 1595.82C276.273 1605.24 285.495 1612.54 296.325 1617.35L310.133 1586.28ZM295.178 1574.51C292.236 1570.85 289.926 1565.05 289.926 1555.41H255.926C255.926 1570.51 259.622 1584.56 268.692 1595.82L295.178 1574.51ZM289.926 1555.41C289.926 1547.2 292.074 1540.74 295.982 1535.34L268.434 1515.41C259.966 1527.12 255.926 1540.69 255.926 1555.41H289.926ZM296.08 1535.2C300.184 1529.41 306.102 1524.66 314.59 1521.18L301.696 1489.72C287.98 1495.34 276.608 1503.87 268.336 1515.55L296.08 1535.2ZM314.809 1521.09C323.391 1517.43 333.963 1515.35 346.909 1515.35V1481.35C330.371 1481.35 315.099 1484 301.477 1489.81L314.809 1521.09ZM346.909 1515.35C358.334 1515.35 369.611 1517.01 380.79 1520.37L390.56 1487.8C376.259 1483.51 361.693 1481.35 346.909 1481.35V1515.35ZM380.79 1520.37C392.193 1523.79 401.972 1528.25 410.281 1533.64L428.773 1505.11C417.426 1497.75 404.637 1492.02 390.56 1487.8L380.79 1520.37ZM404.116 1512.2L387.463 1547.96L418.285 1562.31L434.938 1526.55L404.116 1512.2Z" fill="black"/>
</svg>
