<svg width="1100" height="1592" viewBox="0 0 1100 1592" fill="none" xmlns="http://www.w3.org/2000/svg">
<path d="M555 0C278.858 0 55 223.858 55 500H1055C1055 223.858 831.142 0 555 0Z" fill="black"/>
<path d="M162.57 467.5C166.568 254.189 340.734 82.5 555 82.5C769.266 82.5 943.432 254.189 947.43 467.5H162.57Z" fill="black" stroke="white" stroke-width="15"/>
<path d="M556 316C484.203 316 426 374.203 426 446H686C686 374.203 627.797 316 556 316Z" fill="white"/>
<rect x="550" y="84" width="15" height="238" fill="white"/>
<rect width="15" height="251.523" transform="matrix(0.573576 0.819152 -0.774022 0.633159 847.685 209)" fill="white"/>
<rect width="15" height="251.523" transform="matrix(0.707107 -0.707107 0.757947 0.652316 261 216.606)" fill="white"/>
<path fill-rule="evenodd" clip-rule="evenodd" d="M55 520H1055V1412H55V520ZM155 570H536V951H155V570ZM536 991H155V1372H536V991ZM574 991H955V1372H574V991ZM955 570H574V951H955V570Z" fill="black"/>
<path fill-rule="evenodd" clip-rule="evenodd" d="M1100 1412H0V1592H1100V1412ZM1031 1432H81V1450H1031V1432Z" fill="black"/>
<path d="M82.56 1495H123.51V1504.38H108.53V1544H97.47V1504.38H82.56V1495ZM153.441 1544.42C148.588 1544.42 144.178 1543.35 140.211 1541.2C136.291 1539.01 133.211 1536.02 130.971 1532.24C128.778 1528.46 127.681 1524.21 127.681 1519.5C127.681 1514.79 128.778 1510.54 130.971 1506.76C133.211 1502.98 136.291 1500.02 140.211 1497.87C144.178 1495.68 148.588 1494.58 153.441 1494.58C158.294 1494.58 162.658 1495.65 166.531 1497.8C170.451 1499.95 173.531 1502.93 175.771 1506.76C178.011 1510.54 179.131 1514.79 179.131 1519.5C179.131 1524.21 178.011 1528.48 175.771 1532.31C173.531 1536.09 170.451 1539.05 166.531 1541.2C162.658 1543.35 158.294 1544.42 153.441 1544.42ZM153.441 1539.8C157.314 1539.8 160.814 1538.94 163.941 1537.21C167.068 1535.44 169.518 1533.01 171.291 1529.93C173.064 1526.8 173.951 1523.33 173.951 1519.5C173.951 1515.67 173.064 1512.22 171.291 1509.14C169.518 1506.01 167.068 1503.59 163.941 1501.86C160.814 1500.09 157.314 1499.2 153.441 1499.2C149.568 1499.2 146.044 1500.09 142.871 1501.86C139.744 1503.59 137.271 1506.01 135.451 1509.14C133.678 1512.22 132.791 1515.67 132.791 1519.5C132.791 1523.33 133.678 1526.8 135.451 1529.93C137.271 1533.01 139.744 1535.44 142.871 1537.21C146.044 1538.94 149.568 1539.8 153.441 1539.8ZM196.778 1499.48H179.558V1495H219.178V1499.48H201.958V1544H196.778V1499.48ZM252.922 1530.91H225.622L219.742 1544H214.352L236.752 1495H241.862L264.262 1544H258.802L252.922 1530.91ZM251.032 1526.71L239.272 1500.39L227.512 1526.71H251.032ZM269.568 1495H274.748V1539.52H302.188V1544H269.568V1495ZM396.22 1495H407.63L391.04 1544H379.63L369.34 1508.65L358.91 1544H347.57L331.05 1495H342.95L353.59 1532.38L364.16 1495H375.01L385.72 1532.38L396.22 1495ZM415.592 1495H420.772V1544H415.592V1495ZM474.865 1495V1544H470.595L439.095 1504.24V1544H433.915V1495H438.185L469.755 1534.76V1495H474.865ZM488.059 1495H508.009C513.189 1495 517.762 1496.05 521.729 1498.15C525.695 1500.2 528.775 1503.1 530.969 1506.83C533.162 1510.52 534.259 1514.74 534.259 1519.5C534.259 1524.26 533.162 1528.51 530.969 1532.24C528.775 1535.93 525.695 1538.82 521.729 1540.92C517.762 1542.97 513.189 1544 508.009 1544H488.059V1495ZM507.729 1539.52C512.022 1539.52 515.779 1538.68 518.999 1537C522.219 1535.27 524.715 1532.92 526.489 1529.93C528.262 1526.9 529.149 1523.42 529.149 1519.5C529.149 1515.58 528.262 1512.13 526.489 1509.14C524.715 1506.11 522.219 1503.75 518.999 1502.07C515.779 1500.34 512.022 1499.48 507.729 1499.48H493.239V1539.52H507.729ZM564.511 1544.42C559.657 1544.42 555.247 1543.35 551.281 1541.2C547.361 1539.01 544.281 1536.02 542.041 1532.24C539.847 1528.46 538.751 1524.21 538.751 1519.5C538.751 1514.79 539.847 1510.54 542.041 1506.76C544.281 1502.98 547.361 1500.02 551.281 1497.87C555.247 1495.68 559.657 1494.58 564.511 1494.58C569.364 1494.58 573.727 1495.65 577.601 1497.8C581.521 1499.95 584.601 1502.93 586.841 1506.76C589.081 1510.54 590.201 1514.79 590.201 1519.5C590.201 1524.21 589.081 1528.48 586.841 1532.31C584.601 1536.09 581.521 1539.05 577.601 1541.2C573.727 1543.35 569.364 1544.42 564.511 1544.42ZM564.511 1539.8C568.384 1539.8 571.884 1538.94 575.011 1537.21C578.137 1535.44 580.587 1533.01 582.361 1529.93C584.134 1526.8 585.021 1523.33 585.021 1519.5C585.021 1515.67 584.134 1512.22 582.361 1509.14C580.587 1506.01 578.137 1503.59 575.011 1501.86C571.884 1500.09 568.384 1499.2 564.511 1499.2C560.637 1499.2 557.114 1500.09 553.941 1501.86C550.814 1503.59 548.341 1506.01 546.521 1509.14C544.747 1512.22 543.861 1515.67 543.861 1519.5C543.861 1523.33 544.747 1526.8 546.521 1529.93C548.341 1533.01 550.814 1535.44 553.941 1537.21C557.114 1538.94 560.637 1539.8 564.511 1539.8ZM664.777 1495L648.257 1544H642.797L628.447 1502.21L614.027 1544H608.637L592.117 1495H597.437L611.577 1537.14L626.207 1495H631.037L645.457 1537.35L659.807 1495H664.777ZM733.221 1508.65C730.701 1507.11 728.018 1505.9 725.171 1505.01C722.371 1504.08 719.968 1503.61 717.961 1503.61C716.048 1503.61 714.531 1503.96 713.411 1504.66C712.291 1505.36 711.731 1506.39 711.731 1507.74C711.731 1509.47 712.524 1510.8 714.111 1511.73C715.744 1512.62 718.241 1513.55 721.601 1514.53C724.961 1515.51 727.714 1516.49 729.861 1517.47C732.054 1518.45 733.921 1519.92 735.461 1521.88C737.001 1523.84 737.771 1526.43 737.771 1529.65C737.771 1532.78 736.931 1535.48 735.251 1537.77C733.618 1540.01 731.354 1541.71 728.461 1542.88C725.568 1544.05 722.278 1544.63 718.591 1544.63C714.624 1544.63 710.728 1543.93 706.901 1542.53C703.074 1541.13 699.761 1539.22 696.961 1536.79L701.371 1527.76C703.844 1530 706.691 1531.8 709.911 1533.15C713.131 1534.5 716.071 1535.18 718.731 1535.18C721.018 1535.18 722.791 1534.76 724.051 1533.92C725.358 1533.08 726.011 1531.87 726.011 1530.28C726.011 1529.02 725.568 1527.99 724.681 1527.2C723.841 1526.36 722.744 1525.68 721.391 1525.17C720.084 1524.66 718.264 1524.07 715.931 1523.42C712.571 1522.49 709.818 1521.55 707.671 1520.62C705.571 1519.69 703.751 1518.26 702.211 1516.35C700.671 1514.44 699.901 1511.89 699.901 1508.72C699.901 1505.78 700.694 1503.21 702.281 1501.02C703.868 1498.78 706.084 1497.08 708.931 1495.91C711.778 1494.7 715.091 1494.09 718.871 1494.09C722.231 1494.09 725.544 1494.58 728.811 1495.56C732.078 1496.54 734.971 1497.85 737.491 1499.48L733.221 1508.65ZM782.761 1539.52V1544H748.111V1495H781.711V1499.48H753.291V1516.91H778.631V1521.32H753.291V1539.52H782.761ZM825.597 1544L814.397 1528.25C813.137 1528.39 811.831 1528.46 810.477 1528.46H797.317V1544H792.137V1495H810.477C816.731 1495 821.631 1496.49 825.177 1499.48C828.724 1502.47 830.497 1506.57 830.497 1511.8C830.497 1515.63 829.517 1518.87 827.557 1521.53C825.644 1524.14 822.891 1526.03 819.297 1527.2L831.267 1544H825.597ZM810.337 1524.05C815.191 1524.05 818.901 1522.98 821.467 1520.83C824.034 1518.68 825.317 1515.67 825.317 1511.8C825.317 1507.83 824.034 1504.8 821.467 1502.7C818.901 1500.55 815.191 1499.48 810.337 1499.48H797.317V1524.05H810.337ZM880.663 1495L858.963 1544H853.853L832.153 1495H837.753L856.513 1537.56L875.413 1495H880.663ZM884.975 1495H890.155V1544H884.975V1495ZM924.578 1544.42C919.725 1544.42 915.338 1543.35 911.418 1541.2C907.545 1539.05 904.488 1536.09 902.248 1532.31C900.055 1528.48 898.958 1524.21 898.958 1519.5C898.958 1514.79 900.055 1510.54 902.248 1506.76C904.488 1502.93 907.568 1499.95 911.488 1497.8C915.408 1495.65 919.795 1494.58 924.648 1494.58C928.288 1494.58 931.648 1495.19 934.728 1496.4C937.808 1497.61 940.421 1499.39 942.568 1501.72L939.278 1505.01C935.451 1501.14 930.621 1499.2 924.788 1499.2C920.915 1499.2 917.391 1500.09 914.218 1501.86C911.045 1503.63 908.548 1506.06 906.728 1509.14C904.955 1512.22 904.068 1515.67 904.068 1519.5C904.068 1523.33 904.955 1526.78 906.728 1529.86C908.548 1532.94 911.045 1535.37 914.218 1537.14C917.391 1538.91 920.915 1539.8 924.788 1539.8C930.668 1539.8 935.498 1537.84 939.278 1533.92L942.568 1537.21C940.421 1539.54 937.785 1541.34 934.658 1542.6C931.578 1543.81 928.218 1544.42 924.578 1544.42ZM985.46 1539.52V1544H950.81V1495H984.41V1499.48H955.99V1516.91H981.33V1521.32H955.99V1539.52H985.46ZM1008.35 1544.42C1004.71 1544.42 1001.21 1543.84 997.847 1542.67C994.533 1541.5 991.967 1539.96 990.147 1538.05L992.177 1534.06C993.95 1535.83 996.307 1537.28 999.247 1538.4C1002.19 1539.47 1005.22 1540.01 1008.35 1540.01C1012.73 1540.01 1016.02 1539.22 1018.22 1537.63C1020.41 1536 1021.51 1533.9 1021.51 1531.33C1021.51 1529.37 1020.9 1527.81 1019.69 1526.64C1018.52 1525.47 1017.07 1524.59 1015.35 1523.98C1013.62 1523.33 1011.22 1522.63 1008.14 1521.88C1004.45 1520.95 1001.51 1520.06 999.317 1519.22C997.123 1518.33 995.233 1517 993.647 1515.23C992.107 1513.46 991.337 1511.05 991.337 1508.02C991.337 1505.55 991.99 1503.31 993.297 1501.3C994.603 1499.25 996.61 1497.61 999.317 1496.4C1002.02 1495.19 1005.38 1494.58 1009.4 1494.58C1012.2 1494.58 1014.93 1494.98 1017.59 1495.77C1020.29 1496.52 1022.63 1497.57 1024.59 1498.92L1022.84 1503.05C1020.78 1501.7 1018.59 1500.69 1016.26 1500.04C1013.92 1499.34 1011.64 1498.99 1009.4 1498.99C1005.1 1498.99 1001.86 1499.83 999.667 1501.51C997.52 1503.14 996.447 1505.27 996.447 1507.88C996.447 1509.84 997.03 1511.43 998.197 1512.64C999.41 1513.81 1000.9 1514.72 1002.68 1515.37C1004.5 1515.98 1006.92 1516.65 1009.96 1517.4C1013.55 1518.29 1016.44 1519.17 1018.64 1520.06C1020.88 1520.9 1022.77 1522.21 1024.31 1523.98C1025.85 1525.71 1026.62 1528.06 1026.62 1531.05C1026.62 1533.52 1025.94 1535.79 1024.59 1537.84C1023.28 1539.85 1021.25 1541.46 1018.5 1542.67C1015.74 1543.84 1012.36 1544.42 1008.35 1544.42Z" fill="white"/>
</svg>
