<svg xmlns="http://www.w3.org/2000/svg" version="1.1" viewBox="0 0 64 80" x="0px" y="0px">
	<title>
		phone-call-2
	</title>
	<path d="M18.773 0c-3.129 0-5.689 2.56-5.689 5.689v52.622c0 3.129 2.56 5.689 5.689 5.689h26.453c3.129 0 5.689-2.56 5.689-5.689v-52.622c0-3.129-2.56-5.689-5.689-5.689h-26.453zM28.829 5.479h6.343c0.417 0 0.755 0.478 0.755 1.067s-0.338 1.067-0.755 1.067h-6.343c-0.417 0-0.755-0.478-0.755-1.067s0.338-1.067 0.755-1.067zM16.209 13.085h31.582v37.831h-31.582v-37.831zM32 53.936c0 0 0 0 0 0 1.945 0 3.522 1.577 3.522 3.522 0 0 0 0 0 0v0c0 0 0 0 0 0 0 1.945-1.577 3.522-3.522 3.522 0 0-0 0-0 0v0c0 0-0 0-0 0-1.945 0-3.522-1.577-3.522-3.522 0 0 0-0 0-0v0c0 0 0-0 0-0 0-1.945 1.577-3.522 3.522-3.522 0 0 0 0 0 0v0z" />
</svg>
