<svg xmlns="http://www.w3.org/2000/svg" data-name="Capa 2" viewBox="0 0 100 125" x="0px" y="0px">
	<path d="M94,6.77c-1.87,2-1.66,5.48-2,8a61.64,61.64,0,0,1-2.34,10.41c-2.2,6.5-6.56,12.58-13.35,14.7-.38.12-.22.72.17.6,5.68-1.78,9.87-6.31,12.36-11.59a42.35,42.35,0,0,0,3.09-10c.35-1.82.64-3.65.9-5.48s.2-4.63,1.65-6.16C94.69,6.91,94.25,6.47,94,6.77Z" />
	<path d="M80.75,17.84c2.91-5.05,8.73-8,13.4-11.25.33-.23,0-.77-.31-.54C89.7,8.89,84.77,11.53,81.6,15.5c-2.68,3.36-3.74,7.6-4.45,11.75-.76,4.41-1.13,9-2.8,13.18-2.15,5.42-6.69,8.46-11.57,11.23a.31.31,0,0,0,.31.54c4-2.27,8.06-4.74,10.49-8.79,2.21-3.69,2.92-8,3.57-12.22C77.86,26.65,78.43,21.88,80.75,17.84Z" />
	<path d="M79.38,18.54a.31.31,0,0,0-.17-.6c-8.69,2.18-12.71,9.85-14.63,18-2.17,9.18-3.1,21-13,25.41-.37.16,0,.7.31.54C70,53.83,58.53,23.77,79.38,18.54Z" />
	<path d="M66.24,28.7c.39-.08.23-.68-.17-.6-8.47,1.63-12.12,10.39-13.64,18C51.44,51,51,56.13,49,60.85a17,17,0,0,1-4.62,6.72,25.71,25.71,0,0,1-7.65,3.9c-.37.14-.21.74.17.6,4-1.49,7.78-3.15,10.34-6.67C50,61.66,51.07,57,51.89,52.56,53.55,43.58,55.31,30.81,66.24,28.7Z" />
	<path d="M54.19,39.37a.31.31,0,0,0-.17-.6C45.92,41,41.55,48.82,39.31,56.38c-1.47,4.95-2.16,10.15-3.9,15-2,5.57-6.84,7.76-12,9.63-.37.14-.21.74.17.6,3.76-1.36,7.81-2.85,10.38-6.08,2.78-3.49,3.41-8.55,4.4-12.77C40.49,53.52,43.85,42.27,54.19,39.37Z" />
	<path d="M29.92,58.29A21.74,21.74,0,0,1,42.71,47.9c.38-.12.22-.72-.17-.6A22.28,22.28,0,0,0,31.6,54.62C28.6,58.37,27,63,25.76,67.53,23.3,76.31,20.71,88.08,10.71,91c2.54-4.33,2.61-10.31,4-14.92,2-6.81,5.88-17.26,14-18.43.4-.06.23-.66-.17-.6-7,1-10.56,8.53-12.88,14.37a62.46,62.46,0,0,0-3.23,11.76c-.7,3.79-1.51,7.76-4.63,10.32-.31.25.13.69.44.44a10.48,10.48,0,0,0,2-2.15h0C18.68,89.71,22.64,81,24.81,73.36,26.26,68.27,27.34,63,29.92,58.29Z" />
	<path d="M16.67,68.37c.4,0,.4-.58,0-.62-5.1-.53-7.29,5.07-11,7.39-.34.21,0,.75.31.54C9.57,73.43,11.79,67.86,16.67,68.37Z" />
	<path d="M93.67,27.6A10.25,10.25,0,0,1,88,31.12c-.39.09-.22.69.17.6A10.79,10.79,0,0,0,94.11,28C94.37,27.73,93.93,27.29,93.67,27.6Z" />
</svg>
