<svg xmlns="http://www.w3.org/2000/svg" xmlns:xlink="http://www.w3.org/1999/xlink" version="1.1" x="0px" y="0px" viewBox="0 0 100 125" style="enable-background:new 0 0 100 100;" xml:space="preserve">
	<g>
		<path d="M94.8,75.9H89c0.6-0.3,1-1,1.1-1.7l0.8-11.7c0-0.6-0.2-1.2-0.6-1.6c-0.4-0.4-1-0.7-1.6-0.7H87v-0.6c1,0.2,2.3,0.1,2.1-1   c-0.1-1-1.2-1.8-2.1-2.2v-1.8c1.3-0.2,2.2-0.9,1.7-2.5c-0.3-1-0.9-1.6-1.7-1.8V6.5H13v69.4H5.2v11.9h4.9v5.8h79.8v-5.8h4.9V75.9z    M75.3,57c0.3,0.6,0.7,1.1,1.1,1.3c0.8,0.5,1.8,0.5,2.8,0.5v1.3h-5.7c-0.6,0-1.2,0.3-1.6,0.7c-0.4,0.4-0.6,1-0.6,1.6l0.9,11.7   c0.1,0.7,0.5,1.3,1.1,1.7H20.8V57H75.3z M76.1,56.1c0-0.2,0.1-0.3,0.2-0.5h-0.1c0.4-0.3,1.1-0.3,1.6-0.2c0.6,0.1,1.2,0.4,1.7,0.8   c0.6,0.5,1,1.3,1.3,2.1c-1.5-0.4-3.7,0-4.5-1.3h0.1C76.1,56.8,76,56.4,76.1,56.1z M89.3,61.7c0.2,0.2,0.2,0.4,0.2,0.6l-0.8,11.7   c0,0.4-0.4,0.8-0.8,0.8H74.5c-0.4,0-0.8-0.3-0.8-0.7l-0.9-11.7c0-0.2,0.1-0.4,0.2-0.6c0.2-0.2,0.4-0.3,0.6-0.3h15.1   C88.9,61.4,89.1,61.5,89.3,61.7z M88,58.8c-0.3,0.3-1.6-0.3-2-0.4c-0.6-0.3-1.1-0.6-1.6-1.1c-0.4-0.3-0.7-0.7-1-1   c0.7,0,1.5,0.1,2.2,0.3C86.1,56.7,89,58.1,88,58.8z M87.9,52.1c0.8,2.3-3.1,1.6-4.9,1.1c0.6-0.6,1.2-1.1,1.9-1.6   c0.5-0.3,1-0.5,1.5-0.7C87.2,50.8,87.6,51.4,87.9,52.1z M14.3,7.8h71.4v37.4c-0.2-0.1-0.5-0.2-0.8-0.1c-1.1,0.1-2.1,1.1-2.8,1.9   c-0.5,0.5-1.2,1.4-1.5,2.3v-2.7c0.5-0.4,0.9-0.9,1.3-1.4c0.5-0.6,1.8-2.1,0.6-2.8c-0.6-0.3-1.3,0-2,0.4V14.3H19.4v35.6h52.9   c0.5,0.8,1.3,1.5,1.7,1.8c1.6,1.2,3.5,1.9,5.6,2.1c0.2,0,0.3-0.1,0.4-0.2c0.1-0.1,0.2-0.2,0.1-0.4c-0.4-1.2-1.1-2.3-2-3.2h2.3   c0,0.2,0,0.4,0,0.5c-0.1,0.3,0.1,0.6,0.5,0.5c1.6-0.6,3.7-1,4.8-2.4v1.8c-1.5,0.6-2.7,1.5-3.7,2.7c-0.1,0.1-0.1,0.1-0.1,0.2   c0,0,0,0,0,0.1c0,0,0,0,0,0c0,0,0,0,0,0c0,0.1,0.1,0.3,0.2,0.4c0,0,0.1,0.1,0.2,0.1c0.7,0.3,2.1,0.6,3.5,0.6v1.3   c-1.2-0.3-2.5-0.4-3.8-0.2c-0.1,0-0.2,0-0.3,0.1c-0.2,0.1-0.2,0.3-0.1,0.5c0.1,0.1,0.2,0.3,0.4,0.3c1,0.1,1.5,1.2,2.2,1.8   c0.5,0.4,1,0.7,1.5,1v1h-5.1V59c0.1,0.1,0.3,0.1,0.4,0.2c0.1,0.1,0.1,0.1,0.2,0.1c0.2,0.1,0.4-0.1,0.5-0.3c0-0.1,0-0.1,0-0.2   c-0.1-0.9-0.5-1.9-1.1-2.7v-0.5h-0.5c-0.2-0.1-0.3-0.3-0.5-0.4c-1-0.7-3.2-1.2-4.1-0.2c-0.2,0.2-0.3,0.4-0.3,0.6H19.4v20.2h-5.1   V7.8z M84.5,48.5c-0.9,0.7-2.1,1-3.2,1.4c0.1-0.3,0.3-0.6,0.4-0.8c0.3-0.5,0.6-1,0.9-1.4c0.5-0.5,1-1.1,1.6-1.5   c0.4-0.3,1.1-0.7,1.4,0.1C85.9,47.2,85.1,48.1,84.5,48.5z M79.1,52.9c-1.3-0.2-2.6-0.6-3.7-1.3c-0.6-0.4-1.2-0.8-1.7-1.3   c-0.2-0.2-0.5-0.5-0.6-0.8c-0.3-0.7,0.2-1,0.9-0.9C76.3,49,78.2,50.7,79.1,52.9z M76.3,48.5c-1.1-0.6-2.7-1.2-3.7-0.6   c-0.3,0.2-0.5,0.4-0.5,0.6H20.8V15.7h58.5v28.4c-0.7,0.9-1.1,1.9-1.1,3c0,0.3,0.2,0.4,0.4,0.4c0.1,0,0.1,0,0.2,0   c0.2,0,0.4-0.1,0.5-0.1v1.2H76.3z M79,46.5c0.1-0.7,0.4-1.3,0.8-1.9c0.3-0.3,0.6-0.6,0.9-0.9c0.2-0.1,0.9-0.7,1.2-0.6   c0.6,0.2-0.9,1.9-1.1,2.1C80.2,45.9,79.7,46.3,79,46.5z M88.6,92.2H11.4v-4.4h77.1V92.2z M93.5,86.4h-3.6H10.1H6.5v-9.2H13h6.5   h61.1H87h6.4V86.4z" />
		<path d="M77,46.1c-0.7-0.8-4.9-4.4-5-1.6c-0.1,2.2,3,2.6,4.6,2.3c0.1,0,0.1,0,0.2,0c0.2-0.1,0.3-0.3,0.3-0.5   C77,46.2,77,46.1,77,46.1z M72.9,44.6c0.1-0.5,0.5-0.2,0.9,0c0.3,0.1,0.6,0.3,0.9,0.5c0.4,0.3,0.8,0.6,1.2,0.9   C74.6,46.1,72.7,45.8,72.9,44.6z" />
		<path d="M76.8,44.2C76.8,44.2,76.8,44.2,76.8,44.2C76.8,44.2,76.8,44.2,76.8,44.2c0.2-0.1,0.3-0.2,0.2-0.4c0-1.7,1.4-2.9,1.5-4.6   c0.1-1.1-0.4-2.8-1.8-2.7c-1.3,0.1-1.5,1.7-1.5,2.7c0,1.6,0.5,3.1,1,4.6C76.2,44.2,76.5,44.3,76.8,44.2z M76,38.9   c0-0.5,0.3-2.2,1.3-1.3c0.9,0.8,0.2,2.4-0.2,3.2c-0.2,0.4-0.4,0.9-0.6,1.3c-0.1-0.5-0.3-1-0.4-1.5C76,40.1,76,39.5,76,38.9z" />
	</g>
</svg>
