<svg xmlns="http://www.w3.org/2000/svg" xmlns:xlink="http://www.w3.org/1999/xlink" viewBox="0 0 100 125" version="1.1" x="0px" y="0px">
	<title>
		Rectangular Factory Window
	</title>
	<desc>
		Created with Sketch.
	</desc>
	<g stroke="none" stroke-width="1" fill="none" fill-rule="evenodd">
		<g fill="#000000">
			<path d="M26,5 L74,5 L74,95 L26,95 L26,5 Z M27.8113208,6.81818182 L27.8113208,20.4545455 L35.9622642,20.4545455 L35.9622642,6.81818182 L27.8113208,6.81818182 Z M27.8113208,21.3636364 L27.8113208,35 L35.9622642,35 L35.9622642,21.3636364 L27.8113208,21.3636364 Z M36.8679245,6.81818182 L36.8679245,20.4545455 L45.0188679,20.4545455 L45.0188679,6.81818182 L36.8679245,6.81818182 Z M36.8679245,21.3636364 L36.8679245,35 L45.0188679,35 L45.0188679,21.3636364 L36.8679245,21.3636364 Z M45.9245283,6.81818182 L45.9245283,20.4545455 L54.0754717,20.4545455 L54.0754717,6.81818182 L45.9245283,6.81818182 Z M45.9245283,21.3636364 L45.9245283,35 L54.0754717,35 L54.0754717,21.3636364 L45.9245283,21.3636364 Z M54.9811321,6.81818182 L54.9811321,20.4545455 L63.1320755,20.4545455 L63.1320755,6.81818182 L54.9811321,6.81818182 Z M54.9811321,21.3636364 L54.9811321,35 L63.1320755,35 L63.1320755,21.3636364 L54.9811321,21.3636364 Z M64.0377358,6.81818182 L64.0377358,20.4545455 L72.1886792,20.4545455 L72.1886792,6.81818182 L64.0377358,6.81818182 Z M64.0377358,21.3636364 L64.0377358,35 L72.1886792,35 L72.1886792,21.3636364 L64.0377358,21.3636364 Z M27.8113208,35.9090909 L27.8113208,49.5454545 L35.9622642,49.5454545 L35.9622642,35.9090909 L27.8113208,35.9090909 Z M36.8679245,35.9090909 L36.8679245,49.5454545 L45.0188679,49.5454545 L45.0188679,35.9090909 L36.8679245,35.9090909 Z M45.9245283,35.9090909 L45.9245283,49.5454545 L54.0754717,49.5454545 L54.0754717,35.9090909 L45.9245283,35.9090909 Z M54.9811321,35.9090909 L54.9811321,49.5454545 L63.1320755,49.5454545 L63.1320755,35.9090909 L54.9811321,35.9090909 Z M64.0377358,35.9090909 L64.0377358,49.5454545 L72.1886792,49.5454545 L72.1886792,35.9090909 L64.0377358,35.9090909 Z M27.8113208,50.4545455 L27.8113208,64.0909091 L35.9622642,64.0909091 L35.9622642,50.4545455 L27.8113208,50.4545455 Z M36.8679245,50.4545455 L36.8679245,64.0909091 L45.0188679,64.0909091 L45.0188679,50.4545455 L36.8679245,50.4545455 Z M45.9245283,50.4545455 L45.9245283,64.0909091 L54.0754717,64.0909091 L54.0754717,50.4545455 L45.9245283,50.4545455 Z M54.9811321,50.4545455 L54.9811321,64.0909091 L63.1320755,64.0909091 L63.1320755,50.4545455 L54.9811321,50.4545455 Z M64.0377358,50.4545455 L64.0377358,64.0909091 L72.1886792,64.0909091 L72.1886792,50.4545455 L64.0377358,50.4545455 Z M27.8113208,65 L27.8113208,78.6363636 L35.9622642,78.6363636 L35.9622642,65 L27.8113208,65 Z M27.8113208,79.5454545 L27.8113208,93.1818182 L35.9622642,93.1818182 L35.9622642,79.5454545 L27.8113208,79.5454545 Z M36.8679245,65 L36.8679245,78.6363636 L45.0188679,78.6363636 L45.0188679,65 L36.8679245,65 Z M36.8679245,79.5454545 L36.8679245,93.1818182 L45.0188679,93.1818182 L45.0188679,79.5454545 L36.8679245,79.5454545 Z M45.9245283,65 L45.9245283,78.6363636 L54.0754717,78.6363636 L54.0754717,65 L45.9245283,65 Z M45.9245283,79.5454545 L45.9245283,93.1818182 L54.0754717,93.1818182 L54.0754717,79.5454545 L45.9245283,79.5454545 Z M54.9811321,65 L54.9811321,78.6363636 L63.1320755,78.6363636 L63.1320755,65 L54.9811321,65 Z M54.9811321,79.5454545 L54.9811321,93.1818182 L63.1320755,93.1818182 L63.1320755,79.5454545 L54.9811321,79.5454545 Z M64.0377358,65 L64.0377358,78.6363636 L72.1886792,78.6363636 L72.1886792,65 L64.0377358,65 Z M64.0377358,79.5454545 L64.0377358,93.1818182 L72.1886792,93.1818182 L72.1886792,79.5454545 L64.0377358,79.5454545 Z" />
		</g>
	</g>
</svg>
