<svg xmlns="http://www.w3.org/2000/svg" xmlns:xlink="http://www.w3.org/1999/xlink" version="1.1" x="0px" y="0px" viewBox="0 0 68 85" enable-background="new 0 0 68 68" xml:space="preserve">
	<g>
		<path d="M10.04053,59.59619c0,0.27637,0.22363,0.5,0.5,0.5h37.55811c0.27637,0,0.5-0.22363,0.5-0.5   c-0.0003-1.08423,0.00109,3.92724-0.00293-10.60156c0-0.27637-0.22363-0.5-0.5-0.5s-0.5,0.22363-0.5,0.5v6.6333h-2.46533v-6.6333   c0-0.27637-0.22363-0.5-0.5-0.5s-0.5,0.22363-0.5,0.5v0.0296l-8.56696,6.6037h-6.97461l8.09088-6.2373   c0.21875-0.16846,0.25928-0.48242,0.09082-0.70117c-0.16895-0.21875-0.48242-0.26025-0.70117-0.09082l-9.11822,7.0293h-6.9754   l8.08191-6.2373c0.21826-0.16895,0.25879-0.48291,0.09033-0.70166c-0.16895-0.21729-0.48193-0.2583-0.70166-0.09033   l-9.10809,7.0293h-3.82941v-2.43988l6.94385-5.35699c0.21875-0.16895,0.25928-0.48291,0.09082-0.70117   c-0.16943-0.21875-0.48242-0.2583-0.70117-0.09082l-6.3335,4.88611v-5.37238l6.94385-5.35651   c0.21875-0.16895,0.25928-0.48291,0.09082-0.70117c-0.16943-0.21826-0.48242-0.25928-0.70117-0.09082l-6.3335,4.88568v-5.3822   l6.94385-5.35699c0.21875-0.16895,0.25928-0.48291,0.09082-0.70117c-0.16943-0.21875-0.48242-0.25879-0.70117-0.09082   l-6.3335,4.88611v-5.38263l6.94385-5.3565c0.21875-0.16895,0.25928-0.48291,0.09082-0.70117   c-0.16943-0.21875-0.48242-0.25879-0.70117-0.09082l-6.3335,4.88568v-5.3822l6.94385-5.35699   c0.21875-0.16895,0.25928-0.48291,0.09082-0.70117c-0.16943-0.21875-0.48242-0.2583-0.70117-0.09082l-6.3335,4.88611v-5.38263   l6.94385-5.35699c0.21875-0.16895,0.25928-0.48291,0.09082-0.70117c-0.16943-0.21826-0.48242-0.25928-0.70117-0.09082   l-6.3335,4.88611v-5.51892h6.63867c0.27637,0,0.5-0.22363,0.5-0.5s-0.22363-0.5-0.5-0.5H14.0185   c-0.00342-0.00006-0.00629-0.00195-0.0097-0.00195H11.0376V9.71435h10.10986c0.27637,0,0.5-0.22363,0.5-0.5s-0.22363-0.5-0.5-0.5   H10.5376c-0.27637,0-0.5,0.22363-0.5,0.5C10.03992,46.97675,10.04053,58.95682,10.04053,59.59619z M11.04053,59.09619v-2.46826   c61.35222,0-4.38191-0.00036,36.55811,0.00098v2.46729H11.04053z M44.13037,50.28668v5.34125h-6.92914L44.13037,50.28668z    M13.50879,55.62793h-2.46826V13.18994h2.46826V55.62793z" />
		<path d="M24.20508,46.43896h30.61719c0.27637,0,0.5-0.22363,0.5-0.5v-9.01025c0-0.27637-0.22363-0.5-0.5-0.5s-0.5,0.22363-0.5,0.5   v8.51025H24.70508V3h29.61719v10.72119c0,0.27637,0.22363,0.5,0.5,0.5s0.5-0.22363,0.5-0.5V2.5c0-0.27637-0.22363-0.5-0.5-0.5   H24.20508c-0.27637,0-0.5,0.22363-0.5,0.5v43.43896C23.70508,46.21533,23.92871,46.43896,24.20508,46.43896z" />
		<path d="M39.51367,43.37939c0.27637,0,0.5-0.22363,0.5-0.5V24.71924h3.26123c0.27637,0,0.5-0.22363,0.5-0.5s-0.22363-0.5-0.5-0.5   h-3.26123V5.55566c0-0.27637-0.22363-0.5-0.5-0.5s-0.5,0.22363-0.5,0.5v18.16357H27.2627c-0.27637,0-0.5,0.22363-0.5,0.5   s0.22363,0.5,0.5,0.5h11.75097v18.16015C39.01367,43.15576,39.2373,43.37939,39.51367,43.37939z" />
		<path d="M44.08008,13.66553l1.72949-1.72949c0.19531-0.19531,0.19531-0.51172,0-0.70703s-0.51172-0.19531-0.70703,0   l-1.72949,1.72949c-0.19531,0.19531-0.19531,0.51172,0,0.70703C43.56836,13.86083,43.88476,13.86084,44.08008,13.66553z" />
		<path d="M44.50879,17.20898l4.84375-4.84424c0.19531-0.19531,0.19531-0.51172,0-0.70703s-0.51172-0.19531-0.70703,0   l-4.84375,4.84424c-0.19531,0.19531-0.19531,0.51172,0,0.70703C43.99707,17.40429,44.31347,17.4043,44.50879,17.20898z" />
		<path d="M32.54297,32.51416c0.19531-0.19531,0.19531-0.51172,0-0.70703c-0.19531-0.19531-0.51172-0.19531-0.70703,0   l-1.72949,1.72949c-0.19531,0.19531-0.19531,0.51172,0,0.70703c0.19531,0.19531,0.51171,0.19532,0.70703,0L32.54297,32.51416z" />
		<path d="M31.24219,37.78662l4.84375-4.84375c0.19531-0.19531,0.19531-0.51172,0-0.70703s-0.51172-0.19531-0.70703,0   l-4.84375,4.84375c-0.19531,0.19531-0.19531,0.51172,0,0.70703C30.73046,37.98193,31.04687,37.98194,31.24219,37.78662z" />
		<path d="M45.13037,65.5v-2.84131c0-0.27637-0.22363-0.5-0.5-0.5s-0.5,0.22363-0.5,0.5V65.5c0,0.27637,0.22363,0.5,0.5,0.5   S45.13037,65.77637,45.13037,65.5z" />
		<path d="M13.50879,62.65869V65.5c0,0.27637,0.22363,0.5,0.5,0.5s0.5-0.22363,0.5-0.5v-2.84131c0-0.27637-0.22363-0.5-0.5-0.5   S13.50879,62.38232,13.50879,62.65869z" />
		<path d="M39.92871,65.85498c0.1974,0.19543,0.51379,0.19224,0.70703-0.00293l1.3916-1.40308   c0.22063-0.1966,0.22404-0.53109,0.02393-0.7312l-1.41699-1.41748c-0.19531-0.19531-0.51172-0.19531-0.70703,0   s-0.19531,0.51172,0,0.70703l0.57153,0.57178H18.14484l0.56854-0.57324c0.19434-0.1958,0.19336-0.5127-0.00293-0.70703   c-0.1958-0.19385-0.51221-0.19287-0.70703,0.00293l-1.40472,1.41632c-0.20336,0.19282-0.21085,0.51791-0.0108,0.71796   l1.41699,1.41748c0.19531,0.1953,0.51171,0.19531,0.70703,0c0.19531-0.19531,0.19531-0.51172,0-0.70703l-0.56714-0.56738h22.34521   l-0.56421,0.56885C39.73145,65.34375,39.73242,65.66064,39.92871,65.85498z" />
		<path d="M4.63819,56.62793h2.84131c0.27637,0,0.5-0.22363,0.5-0.5s-0.22363-0.5-0.5-0.5H4.63819c-0.27637,0-0.5,0.22363-0.5,0.5   S4.36182,56.62793,4.63819,56.62793z" />
		<path d="M4.63819,13.18994h2.84131c0.27637,0,0.5-0.22363,0.5-0.5s-0.22363-0.5-0.5-0.5H4.63819c-0.27637,0-0.5,0.22363-0.5,0.5   S4.36182,13.18994,4.63819,13.18994z" />
		<path d="M4.99024,51.42334c-0.19531-0.19385-0.51172-0.19287-0.70703,0.00293c-0.19434,0.1958-0.19336,0.5127,0.00293,0.70703   l1.40161,1.39014c0.19979,0.22603,0.5344,0.22366,0.73267,0.02539l1.41748-1.41699c0.19531-0.19531,0.19531-0.51172,0-0.70703   s-0.51172-0.19531-0.70703,0L6.5586,51.99682V16.8255l0.57373,0.56903c0.1974,0.19543,0.51379,0.19224,0.70703-0.00293   c0.19434-0.1958,0.19336-0.5127-0.00293-0.70703l-1.41785-1.40619c-0.19051-0.19932-0.51441-0.21136-0.71643-0.00934   l-1.41748,1.41699c-0.19531,0.19531-0.19531,0.51172,0,0.70703s0.51172,0.19531,0.70703,0l0.56689-0.56665v35.16064   L4.99024,51.42334z" />
		<path d="M45.7832,25.33154c0,4.98438,4.05469,9.03906,9.03906,9.03906s9.03955-4.05469,9.03955-9.03906   c0-4.99121-4.05518-9.05225-9.03955-9.05225S45.7832,20.34033,45.7832,25.33154z M62.86182,25.33154   c0,4.43262-3.60645,8.03906-8.03955,8.03906c-4.43262,0-8.03906-3.60644-8.03906-8.03906   c0-4.43994,3.60645-8.05225,8.03906-8.05225C59.25537,17.27929,62.86182,20.8916,62.86182,25.33154z" />
		<path d="M52.00684,25.4751c-0.00146-0.27588-0.18408-0.48926-0.50195-0.49805c-0.27637,0.00098-0.49902,0.22607-0.49805,0.50195   l0.01263,3.13818c-0.00998,0.28563,0.2186,0.52051,0.50006,0.52051h3.14844c0.27637,0,0.5-0.22363,0.5-0.5s-0.22363-0.5-0.5-0.5   h-1.9483l5.77155-5.77197c0.19531-0.19531,0.19531-0.51172,0-0.70703s-0.51172-0.19531-0.70703,0l-5.76947,5.7699L52.00684,25.4751   z" />
	</g>
</svg>
