<svg xmlns="http://www.w3.org/2000/svg" viewBox="0 0 64 80" x="0px" y="0px">
	<g>
		<path d="M2.132,7.5l4,7a1,1,0,0,0,.625.474l3.732.933,12.8,12.8,1.414-1.414-13-13a1,1,0,0,0-.464-.263l-3.586-.9L4.247,7.167l2.92-2.92,5.966,3.409.9,3.586a1,1,0,0,0,.263.465l13,13,1.414-1.414-12.8-12.8-.933-3.73a1,1,0,0,0-.474-.626l-7-4a1,1,0,0,0-1.2.161l-4,4A1,1,0,0,0,2.132,7.5Z" />
		<rect x="16.444" y="31" width="31.113" height="2" transform="translate(-13.255 32) rotate(-45)" />
		<path d="M17.857,44.485A1,1,0,0,0,17,44H11a1,1,0,0,0-.857.485l-3,5a1,1,0,0,0,0,1.03l3,5A1,1,0,0,0,11,56h6a1,1,0,0,0,.857-.485l3-5a1,1,0,0,0,0-1.03ZM16.434,54H11.566l-2.4-4,2.4-4h4.868l2.4,4Z" />
		<path d="M50,26A11.959,11.959,0,0,0,61.632,11.1a1,1,0,0,0-1.677-.466L53.73,16.855l-4.939-1.646-1.647-4.938,6.225-6.226A1,1,0,0,0,52.9,2.367,11.963,11.963,0,0,0,38,14a11.766,11.766,0,0,0,.243,2.343l-21.9,21.9A11.787,11.787,0,0,0,14,38,12,12,0,1,0,26,50a11.766,11.766,0,0,0-.243-2.343L31,42.414l2.293,2.293a1,1,0,0,0,1.414,0l.5-.5a1.125,1.125,0,0,1,1.586,0,1.12,1.12,0,0,1,0,1.586l-.5.5a1,1,0,0,0,0,1.414L48.222,59.636A8.071,8.071,0,1,0,59.636,48.222L47.707,36.293a1,1,0,0,0-1.414,0l-.5.5a1.125,1.125,0,0,1-1.586,0,1.12,1.12,0,0,1,0-1.586l.5-.5a1,1,0,0,0,0-1.414L42.414,31l5.243-5.243A11.789,11.789,0,0,0,50,26Zm3.929,34a6.066,6.066,0,0,1-2.127-.388l7.81-7.81A6.064,6.064,0,0,1,53.929,60ZM42.6,34.01a3.121,3.121,0,0,0,4.4,4.394L58.222,49.636c.122.122.236.251.346.382l-8.55,8.55c-.131-.11-.26-.224-.382-.346L38.405,46.99a3.121,3.121,0,0,0-4.4-4.394l-1.6-1.6L41,32.414Zm4.038-10.058L23.953,46.633a1,1,0,0,0-.264.95,10.067,10.067,0,1,1-7.272-7.272,1.008,1.008,0,0,0,.95-.264l22.68-22.681a1,1,0,0,0,.263-.95,9.952,9.952,0,0,1,10.258-12.4L45.293,9.293a1,1,0,0,0-.242,1.023l2,6a1,1,0,0,0,.633.632l6,2a1,1,0,0,0,1.023-.241l5.275-5.275c.012.191.018.38.018.568a9.949,9.949,0,0,1-12.417,9.689A1,1,0,0,0,46.633,23.952Z" />
		<rect x="47" y="40.929" width="2" height="14.142" transform="translate(-19.882 48) rotate(-45)" />
	</g>
</svg>
