<svg xmlns="http://www.w3.org/2000/svg" xmlns:xlink="http://www.w3.org/1999/xlink" version="1.1" x="0px" y="0px" viewBox="0 0 68 85" style="enable-background:new 0 0 68 68;" xml:space="preserve">
	<style type="text/css">
		.st0{fill:#010101;}
		.st1{fill:none;stroke:#010101;stroke-width:2;stroke-linecap:round;stroke-linejoin:round;stroke-miterlimit:10;}
	</style>
	<g>
		<g>
			<path class="st0" d="M49,10.3h-9.7V7.9c0-0.6-0.4-1-1-1H35V6.1C35,3.3,32.7,1,29.9,1h-7.2c-2.8,0-5.1,2.3-5.1,5.1v0.7h-3.3    c-0.6,0-1,0.4-1,1v2.4H4.6c-2,0-3.6,1.6-3.6,3.6v49.5c0,2,1.6,3.6,3.6,3.6H49c2,0,3.6-1.6,3.6-3.6V13.9C52.6,11.9,51,10.3,49,10.3    z M19.6,6.1C19.6,4.4,21,3,22.7,3h7.2C31.6,3,33,4.4,33,6.1v0.7H19.6V6.1z M37.3,8.9v5.4h-22c0-2,0-3.4,0-5.4    C23.4,8.9,7.8,8.9,37.3,8.9z M50.6,63.4c0,0.9-0.7,1.6-1.6,1.6H4.6C3.7,65,3,64.3,3,63.4V13.9c0-0.9,0.7-1.6,1.6-1.6h8.7v2.9    c0,0.6,0.4,1,1,1h24c0.6,0,1-0.4,1-1v-2.9H49c0.9,0,1.6,0.7,1.6,1.6V63.4z" />
		</g>
		<g>
			<path class="st0" d="M62.9,19.6h-3.1c-2.2,0-4.1,1.8-4.1,4.1v28.1c0,0,0,0.3,0,0.3l4.6,14.2c0.1,0.4,0.5,0.7,1,0.7    c0.4,0,0.8-0.3,1-0.7L67,52.1c0,0,0-0.3,0-0.3V23.7C67,21.4,65.2,19.6,62.9,19.6z M57.8,28.9H65v21.8h-7.2V28.9z M59.8,21.6h3.1    c1.1,0,2.1,0.9,2.1,2.1v3.3h-7.2v-3.3C57.8,22.5,58.7,21.6,59.8,21.6z M61.4,62.8l-3.2-10h6.5L61.4,62.8z" />
		</g>
		<g>
			<path class="st0" d="M11.1,35.2c-3.5,0-6.4,2.9-6.4,6.4c0,3.5,2.9,6.4,6.4,6.4s6.4-2.9,6.4-6.4C17.5,38.1,14.6,35.2,11.1,35.2z     M11.1,46c-2.4,0-4.4-2-4.4-4.4c0-2.4,2-4.4,4.4-4.4s4.4,2,4.4,4.4C15.5,44.1,13.5,46,11.1,46z" />
		</g>
		<g>
			<path class="st0" d="M13,39.3l-3,2.5l-0.7-1.2C9,40.2,8.4,40.1,8,40.4c-0.5,0.3-0.6,0.9-0.3,1.4l1.3,2.2c0.2,0.3,0.4,0.4,0.7,0.5    c0.3,0,0.6,0,0.8-0.2l3.9-3.3c0.4-0.4,0.5-1,0.1-1.4C14.1,39,13.4,39,13,39.3z" />
		</g>
		<g>
			<path class="st0" d="M11.1,49.4c-3.5,0-6.4,2.9-6.4,6.4c0,3.5,2.9,6.4,6.4,6.4s6.4-2.9,6.4-6.4C17.5,52.3,14.6,49.4,11.1,49.4z     M11.1,60.3c-2.4,0-4.4-2-4.4-4.4s2-4.4,4.4-4.4s4.4,2,4.4,4.4S13.5,60.3,11.1,60.3z" />
		</g>
		<g>
			<path class="st0" d="M13,53.6l-3,2.5l-0.7-1.2C9,54.4,8.4,54.3,8,54.6c-0.5,0.3-0.6,0.9-0.3,1.4l1.3,2.2c0.2,0.3,0.4,0.4,0.7,0.5    c0.3,0,0.6,0,0.8-0.2l3.9-3.3c0.4-0.4,0.5-1,0.1-1.4C14.1,53.3,13.4,53.2,13,53.6z" />
		</g>
		<g>
			<path class="st0" d="M48,38.8H21c-0.6,0-1,0.4-1,1c0,0.6,0.4,1,1,1h27c0.6,0,1-0.4,1-1C49,39.2,48.6,38.8,48,38.8z" />
		</g>
		<g>
			<path class="st0" d="M48,47.9H21c-0.6,0-1,0.4-1,1c0,0.6,0.4,1,1,1h27c0.6,0,1-0.4,1-1C49,48.4,48.6,47.9,48,47.9z" />
		</g>
		<g>
			<path class="st0" d="M48,57.1H21c-0.6,0-1,0.4-1,1c0,0.6,0.4,1,1,1h27c0.6,0,1-0.4,1-1C49,57.5,48.6,57.1,48,57.1z" />
		</g>
		<g>
			<path class="st0" d="M11.3,30.9h30c0.6,0,1-0.4,1-1v-9.3c0-0.6-0.4-1-1-1h-30c-0.6,0-1,0.4-1,1v9.3C10.3,30.4,10.7,30.9,11.3,30.9    z M12.3,21.6h28v7.3h-28V21.6z" />
		</g>
	</g>
</svg>
