<svg xmlns="http://www.w3.org/2000/svg" xmlns:xlink="http://www.w3.org/1999/xlink" version="1.1" x="0px" y="0px" viewBox="0 0 100 125" enable-background="new 0 0 100 100" xml:space="preserve">
	<g>
		<circle cx="76.5" cy="56.4" r="2.3" />
		<rect x="28.9" y="21.3" transform="matrix(0.7071 0.7071 -0.7071 0.7071 26.6256 -19.5806)" width="16.1" height="2" />
		<rect x="34.3" y="16.6" transform="matrix(0.7071 0.7071 -0.7071 0.7071 23.5624 -21.6157)" width="7.1" height="2" />
		<path d="M88,28.6l-1.3,1.5c3.2,2.9,5.1,7.1,5.1,11.4h2C93.8,36.6,91.7,31.9,88,28.6z" />
		<path d="M66.3,30.1l-1.3-1.5c-3.7,3.3-5.8,8-5.8,12.9h2C61.1,37.2,63,33,66.3,30.1z" />
		<path d="M84.5,32.2l-1.3,1.5c2.3,2,3.6,4.8,3.6,7.8h2C88.8,37.9,87.2,34.5,84.5,32.2z" />
		<path d="M69.8,33.6l-1.3-1.5c-2.8,2.4-4.4,5.8-4.4,9.4h2C66.1,38.5,67.4,35.6,69.8,33.6z" />
		<path d="M68.6,41.2l0,0.7c-0.1,3.2-1,6.4-2.7,9.2l-1.6,2.7h24.5L87,50.9c-1.7-2.9-2.6-6.1-2.6-9.5v-0.1c0-3.6-2.5-6.7-5.8-7.6   c0.1-0.2,0.1-0.5,0.1-0.7c0-0.7-0.3-1.3-0.8-1.7v-14H52.8v67H33.9v-9h15.7V8.1H4.8v67.2h26.1v12h24.8v-67H75v11   c-0.5,0.4-0.8,1-0.8,1.7c0,0.2,0,0.5,0.1,0.7C71,34.6,68.6,37.7,68.6,41.2z M8.8,12.1h36.8v25.2H31.4v-2.5h-8.1v2.5H8.8V12.1z    M8.8,71.3v-30h36.8v30H33.9v-7c1.2-0.5,2-1.7,2-3.1c0-1.9-1.6-3.5-3.5-3.5c-1.9,0-3.5,1.6-3.5,3.5c0,1.4,0.8,2.5,1.9,3.1v7.1H8.8z    M72.1,41.3c0-2.4,2-4.4,4.4-4.4h0.1c2.4,0,4.4,2,4.4,4.4v0.1c0,3.1,0.6,6.1,1.9,8.9H70.2c1.1-2.6,1.8-5.4,1.9-8.2L72.1,41.3z" />
	</g>
</svg>
